<svg width="804" height="667" viewBox="0 0 804 667" fill="none" xmlns="http://www.w3.org/2000/svg">
<g opacity="0.5">
<path opacity="0.5" d="M210.534 162.067L36.3881 162.227C33.3928 162.23 30.9673 164.363 30.9704 166.991L31.1549 321.594C31.158 324.222 33.5887 326.35 36.5839 326.347L210.73 326.187C213.725 326.185 216.151 324.052 216.148 321.424L215.963 166.821C215.96 164.193 213.53 162.064 210.534 162.067Z" fill="#EAE6FF"/>
<path opacity="0.5" d="M203.573 176.062C205.373 176.062 206.833 174.782 206.833 173.202C206.833 171.622 205.373 170.342 203.573 170.342C201.772 170.342 200.313 171.622 200.313 173.202C200.313 174.782 201.772 176.062 203.573 176.062Z" fill="#B2D4FF"/>
<path opacity="0.5" d="M191.162 176.114C192.962 176.114 194.422 174.833 194.422 173.253C194.422 171.673 192.962 170.393 191.162 170.393C189.362 170.393 187.902 171.673 187.902 173.253C187.902 174.833 189.362 176.114 191.162 176.114Z" fill="#B2D4FF"/>
<path opacity="0.5" d="M178.751 176.165C180.551 176.165 182.011 174.884 182.011 173.305C182.011 171.725 180.551 170.444 178.751 170.444C176.951 170.444 175.491 171.725 175.491 173.305C175.491 174.884 176.951 176.165 178.751 176.165Z" fill="#B2D4FF"/>
<path opacity="0.5" d="M109.125 177.807L44.2053 177.538C43.019 177.538 41.8812 177.124 41.0423 176.388C40.2035 175.652 39.7322 174.654 39.7322 173.613C39.7322 172.572 40.2035 171.573 41.0423 170.837C41.8812 170.101 43.019 169.688 44.2053 169.688L109.125 169.957C110.311 169.957 111.449 170.37 112.288 171.106C113.127 171.843 113.598 172.841 113.598 173.882C113.598 174.923 113.127 175.921 112.288 176.657C111.449 177.393 110.311 177.807 109.125 177.807Z" fill="#B2D4FF"/>
<path opacity="0.5" d="M200.474 188.928H46.208C42.4942 188.928 39.4836 191.569 39.4836 194.828V291.659C39.4836 294.917 42.4942 297.559 46.208 297.559H200.474C204.187 297.559 207.198 294.917 207.198 291.659V194.828C207.198 191.569 204.187 188.928 200.474 188.928Z" fill="white"/>
<path opacity="0.5" d="M58.3266 210.362C57.1402 210.362 56.0024 209.948 55.1636 209.212C54.3247 208.476 53.8534 207.477 53.8534 206.436C53.8534 205.396 54.3247 204.397 55.1636 203.661C56.0024 202.925 57.1402 202.511 58.3266 202.511L191.352 202.396C192.538 202.396 193.676 202.81 194.515 203.546C195.354 204.282 195.825 205.28 195.825 206.321C195.825 207.362 195.354 208.36 194.515 209.096C193.676 209.833 192.538 210.246 191.352 210.246L58.3266 210.362Z" fill="#DFE1E5"/>
<path opacity="0.5" d="M58.2241 227.306C57.0378 227.306 55.9 226.893 55.0611 226.156C54.2223 225.42 53.751 224.422 53.751 223.381C53.751 222.34 54.2223 221.342 55.0611 220.606C55.9 219.87 57.0378 219.456 58.2241 219.456L167.729 219.225C168.915 219.225 170.053 219.639 170.892 220.375C171.731 221.111 172.202 222.109 172.202 223.15C172.202 224.191 171.731 225.189 170.892 225.926C170.053 226.662 168.915 227.075 167.729 227.075L58.2241 227.306Z" fill="#DFE1E5"/>
<path opacity="0.5" d="M58.2241 279.396C57.0378 279.396 55.9 278.983 55.0611 278.246C54.2223 277.51 53.751 276.512 53.751 275.471C53.751 274.43 54.2223 273.432 55.0611 272.696C55.9 271.959 57.0378 271.546 58.2241 271.546L149.705 271.302C150.891 271.302 152.029 271.716 152.868 272.452C153.707 273.188 154.178 274.186 154.178 275.227C154.178 276.268 153.707 277.267 152.868 278.003C152.029 278.739 150.891 279.152 149.705 279.152L58.2388 279.396H58.2241Z" fill="#DFE1E5"/>
<g opacity="0.5">
<path opacity="0.5" d="M102.006 314.26C100.819 314.26 99.6815 313.846 98.8426 313.11C98.0038 312.374 97.5325 311.376 97.5325 310.335C97.5325 309.294 98.0038 308.295 98.8426 307.559C99.6815 306.823 100.819 306.41 102.006 306.41H145.159C146.345 306.41 147.483 306.823 148.322 307.559C149.16 308.295 149.632 309.294 149.632 310.335C149.632 311.376 149.16 312.374 148.322 313.11C147.483 313.846 146.345 314.26 145.159 314.26H102.006Z" fill="#B2D4FF"/>
</g>
</g>
<path d="M475.763 436.205C475.765 437.018 475.584 437.823 475.231 438.575C474.878 439.327 474.359 440.01 473.705 440.585C473.05 441.161 472.273 441.617 471.417 441.929C470.561 442.24 469.644 442.401 468.717 442.401L297.831 442.567C295.962 442.564 294.17 441.912 292.848 440.754C291.525 439.595 290.778 438.025 290.77 436.385L290.449 170.329C290.447 169.516 290.628 168.71 290.981 167.959C291.334 167.207 291.853 166.524 292.507 165.949C293.162 165.373 293.939 164.917 294.795 164.605C295.651 164.294 296.568 164.133 297.495 164.133L468.381 163.967C470.25 163.97 472.041 164.622 473.364 165.78C474.687 166.939 475.434 168.509 475.442 170.149V196.265L475.573 305.614L475.763 436.205Z" fill="#EAE6FF"/>
<path d="M361.537 430.549C360.35 430.549 359.213 430.135 358.374 429.399C357.535 428.663 357.064 427.665 357.064 426.624C357.064 425.583 357.535 424.584 358.374 423.848C359.213 423.112 360.35 422.698 361.537 422.698H404.69C405.876 422.698 407.014 423.112 407.853 423.848C408.692 424.584 409.163 425.583 409.163 426.624C409.163 427.665 408.692 428.663 407.853 429.399C407.014 430.135 405.876 430.549 404.69 430.549H361.537Z" fill="#B2D4FF"/>
<path d="M459.932 191.07H305.666C301.952 191.07 298.942 193.712 298.942 196.97V293.801C298.942 297.059 301.952 299.701 305.666 299.701H459.932C463.646 299.701 466.656 297.059 466.656 293.801V196.97C466.656 193.712 463.646 191.07 459.932 191.07Z" fill="#C0B6F2"/>
<path d="M459.8 305.358H305.535C301.821 305.358 298.81 307.999 298.81 311.258V408.088C298.81 411.347 301.821 413.989 305.535 413.989H459.8C463.514 413.989 466.525 411.347 466.525 408.088V311.258C466.525 307.999 463.514 305.358 459.8 305.358Z" fill="#EFF7FF"/>
<path d="M307.552 322.7C306.366 322.7 305.228 322.286 304.389 321.55C303.55 320.814 303.079 319.816 303.079 318.775C303.079 317.734 303.55 316.735 304.389 315.999C305.228 315.263 306.366 314.85 307.552 314.85L440.577 314.747C441.185 314.717 441.794 314.795 442.366 314.978C442.938 315.162 443.462 315.445 443.904 315.812C444.347 316.179 444.7 316.621 444.941 317.112C445.182 317.603 445.306 318.131 445.306 318.666C445.306 319.2 445.182 319.729 444.941 320.219C444.7 320.71 444.347 321.153 443.904 321.519C443.462 321.886 442.938 322.17 442.366 322.353C441.794 322.536 441.185 322.615 440.577 322.584L307.552 322.7Z" fill="#9CB4DB"/>
<path d="M307.45 339.657C306.263 339.657 305.125 339.243 304.287 338.507C303.448 337.771 302.976 336.773 302.976 335.732C302.976 334.691 303.448 333.692 304.287 332.956C305.125 332.22 306.263 331.807 307.45 331.807L416.954 331.563C418.141 331.563 419.279 331.977 420.117 332.713C420.956 333.449 421.428 334.447 421.428 335.488C421.428 336.529 420.956 337.527 420.117 338.263C419.279 339 418.141 339.413 416.954 339.413L307.435 339.657H307.45Z" fill="#9CB4DB"/>
<path d="M307.45 357.012C306.263 357.012 305.125 356.598 304.287 355.862C303.448 355.126 302.976 354.128 302.976 353.087C302.976 352.046 303.448 351.047 304.287 350.311C305.125 349.575 306.263 349.162 307.45 349.162L440.475 348.918C441.661 348.918 442.799 349.332 443.638 350.068C444.477 350.804 444.948 351.802 444.948 352.843C444.948 353.884 444.477 354.882 443.638 355.618C442.799 356.355 441.661 356.768 440.475 356.768L307.45 357.012Z" fill="#9CB4DB"/>
<path d="M333.572 398.609H307.727C305.111 398.609 302.991 400.47 302.991 402.765V406.357C302.991 408.652 305.111 410.513 307.727 410.513H333.572C336.188 410.513 338.309 408.652 338.309 406.357V402.765C338.309 400.47 336.188 398.609 333.572 398.609Z" fill="#31CBFF"/>
<path d="M463.396 177.961C465.197 177.961 466.656 176.68 466.656 175.1C466.656 173.521 465.197 172.24 463.396 172.24C461.596 172.24 460.136 173.521 460.136 175.1C460.136 176.68 461.596 177.961 463.396 177.961Z" fill="#B2D4FF"/>
<path d="M450.985 178.012C452.786 178.012 454.245 176.731 454.245 175.152C454.245 173.572 452.786 172.291 450.985 172.291C449.185 172.291 447.726 173.572 447.726 175.152C447.726 176.731 449.185 178.012 450.985 178.012Z" fill="#B2D4FF"/>
<path d="M438.575 178.063C440.375 178.063 441.835 176.783 441.835 175.203C441.835 173.623 440.375 172.343 438.575 172.343C436.774 172.343 435.315 173.623 435.315 175.203C435.315 176.783 436.774 178.063 438.575 178.063Z" fill="#B2D4FF"/>
<path d="M368.948 179.718L304.058 179.449C302.872 179.449 301.734 179.035 300.895 178.299C300.056 177.563 299.585 176.565 299.585 175.524C299.585 174.483 300.056 173.484 300.895 172.748C301.734 172.012 302.872 171.599 304.058 171.599L368.977 171.868C370.164 171.868 371.302 172.282 372.14 173.018C372.979 173.754 373.451 174.752 373.451 175.793C373.451 176.834 372.979 177.832 372.14 178.568C371.302 179.305 370.164 179.718 368.977 179.718H368.948Z" fill="#B2D4FF"/>
<path d="M460.266 304.665L305.796 304.807C302.074 304.81 299.06 307.461 299.064 310.726L299.18 407.685C299.183 410.951 302.204 413.596 305.926 413.592L460.396 413.45C464.118 413.447 467.132 410.797 467.128 407.531L467.012 310.572C467.008 307.306 463.988 304.662 460.266 304.665Z" fill="white"/>
<path d="M307.771 407.126C306.627 407.069 305.551 406.63 304.765 405.899C303.978 405.168 303.539 404.2 303.539 403.195C303.539 402.189 303.978 401.222 304.765 400.491C305.551 399.76 306.627 399.321 307.771 399.263H371.36C371.97 399.233 372.581 399.312 373.155 399.496C373.729 399.679 374.254 399.964 374.698 400.332C375.142 400.7 375.496 401.144 375.738 401.636C375.979 402.129 376.104 402.659 376.104 403.195C376.104 403.731 375.979 404.261 375.738 404.754C375.496 405.246 375.142 405.69 374.698 406.058C374.254 406.426 373.729 406.71 373.155 406.894C372.581 407.078 371.97 407.157 371.36 407.126H307.757H307.771Z" fill="#DFE1E5"/>
<path d="M467.022 308.859L467.139 392.517L336.511 392.632H299.19L299.073 308.988C299.071 308.434 299.194 307.886 299.434 307.374C299.674 306.862 300.027 306.397 300.473 306.005C300.918 305.612 301.447 305.301 302.03 305.089C302.613 304.877 303.237 304.768 303.868 304.768L462.227 304.614C462.86 304.614 463.487 304.724 464.072 304.938C464.657 305.152 465.187 305.465 465.633 305.86C466.079 306.254 466.431 306.723 466.669 307.238C466.908 307.753 467.027 308.304 467.022 308.859Z" fill="url(#paint0_linear_570_157)"/>
<path opacity="0.29" d="M290.975 203.358C291.431 203.314 291.892 203.314 292.349 203.358L445.416 220.033C447.187 220.229 448.797 221.033 449.894 222.269C450.99 223.505 451.482 225.072 451.263 226.626L437.683 322.7C437.46 324.251 436.546 325.662 435.141 326.624C433.735 327.585 431.953 328.019 430.184 327.831L291.092 312.695L290.975 203.358Z" fill="#4B4C4C"/>
<path d="M417.459 214.761L265.481 191.535C261.822 190.976 258.34 193.125 257.702 196.336L238.767 291.73C238.13 294.94 240.58 297.996 244.238 298.555L396.216 321.781C399.875 322.341 403.357 320.191 403.995 316.981L422.929 221.587C423.567 218.376 421.117 215.32 417.459 214.761Z" fill="url(#paint1_linear_570_157)"/>
<path d="M272.366 214.736C271.292 214.476 270.368 213.874 269.773 213.048C269.178 212.222 268.956 211.231 269.15 210.269C269.344 209.307 269.939 208.442 270.821 207.845C271.702 207.248 272.806 206.961 273.916 207.039L404.997 227.037C405.619 227.078 406.224 227.234 406.774 227.493C407.324 227.752 407.805 228.109 408.188 228.542C408.571 228.974 408.847 229.472 408.997 230.003C409.148 230.534 409.17 231.088 409.063 231.627C408.955 232.166 408.72 232.68 408.373 233.135C408.025 233.59 407.574 233.976 407.046 234.268C406.519 234.561 405.927 234.753 405.31 234.833C404.693 234.913 404.063 234.879 403.462 234.733L272.366 214.684V214.736Z" fill="url(#paint2_linear_570_157)"/>
<path d="M268.975 231.423C267.904 231.163 266.981 230.562 266.388 229.738C265.794 228.913 265.571 227.925 265.763 226.964C265.954 226.004 266.547 225.14 267.424 224.542C268.302 223.943 269.401 223.653 270.509 223.727L378.421 240.082C379.492 240.342 380.414 240.943 381.008 241.767C381.601 242.591 381.824 243.58 381.633 244.541C381.441 245.501 380.849 246.365 379.971 246.963C379.094 247.561 377.994 247.852 376.886 247.778L268.975 231.423Z" fill="url(#paint3_linear_570_157)"/>
<path d="M265.525 248.522C264.454 248.261 263.532 247.66 262.938 246.836C262.344 246.012 262.122 245.023 262.313 244.063C262.505 243.102 263.097 242.239 263.974 241.64C264.852 241.042 265.952 240.751 267.06 240.826L398.155 260.733C398.778 260.775 399.383 260.93 399.933 261.189C400.482 261.448 400.964 261.806 401.347 262.238C401.73 262.67 402.005 263.168 402.156 263.699C402.307 264.231 402.329 264.784 402.221 265.323C402.114 265.863 401.879 266.376 401.532 266.831C401.184 267.286 400.732 267.672 400.205 267.965C399.677 268.257 399.086 268.45 398.469 268.53C397.851 268.61 397.222 268.575 396.621 268.429L265.525 248.509V248.522Z" fill="url(#paint4_linear_570_157)"/>
<path d="M262.119 265.633C261.048 265.372 260.126 264.772 259.532 263.947C258.938 263.123 258.715 262.134 258.907 261.174C259.099 260.213 259.691 259.35 260.568 258.751C261.446 258.153 262.545 257.862 263.654 257.937L394.691 277.806C395.762 278.066 396.684 278.667 397.278 279.491C397.871 280.315 398.094 281.304 397.903 282.265C397.711 283.225 397.119 284.089 396.241 284.687C395.364 285.286 394.264 285.576 393.156 285.502L262.06 265.594L262.119 265.633Z" fill="url(#paint5_linear_570_157)"/>
<path d="M258.742 282.731C257.671 282.471 256.749 281.87 256.155 281.046C255.561 280.221 255.339 279.233 255.53 278.272C255.722 277.312 256.314 276.448 257.191 275.85C258.069 275.251 259.169 274.961 260.277 275.035L350.368 288.606C350.991 288.648 351.596 288.803 352.146 289.062C352.695 289.321 353.177 289.679 353.56 290.111C353.943 290.543 354.219 291.041 354.369 291.572C354.52 292.104 354.542 292.657 354.434 293.196C354.327 293.736 354.092 294.249 353.745 294.704C353.397 295.159 352.945 295.545 352.418 295.838C351.89 296.13 351.299 296.323 350.682 296.403C350.064 296.483 349.435 296.448 348.834 296.302L258.742 282.731Z" fill="url(#paint6_linear_570_157)"/>
<path d="M676.725 163.934L508.513 164.089C503.879 164.093 500.126 167.393 500.131 171.459L500.583 550.097C500.588 554.163 504.349 557.456 508.983 557.452L677.194 557.297C681.828 557.293 685.581 553.993 685.576 549.927L685.124 171.289C685.119 167.223 681.359 163.93 676.725 163.934Z" fill="#EAE6FF"/>
<path d="M571.278 545.35C570.092 545.35 568.954 544.936 568.115 544.2C567.277 543.464 566.805 542.466 566.805 541.425C566.805 540.384 567.277 539.385 568.115 538.649C568.954 537.913 570.092 537.5 571.278 537.5H614.431C615.618 537.5 616.755 537.913 617.594 538.649C618.433 539.385 618.905 540.384 618.905 541.425C618.905 542.466 618.433 543.464 617.594 544.2C616.755 544.936 615.618 545.35 614.431 545.35H571.293H571.278Z" fill="#B2D4FF"/>
<path d="M672.714 177.91C674.514 177.91 675.974 176.629 675.974 175.049C675.974 173.469 674.514 172.189 672.714 172.189C670.914 172.189 669.454 173.469 669.454 175.049C669.454 176.629 670.914 177.91 672.714 177.91Z" fill="#B2D4FF"/>
<path d="M660.303 177.961C662.104 177.961 663.563 176.68 663.563 175.1C663.563 173.521 662.104 172.24 660.303 172.24C658.503 172.24 657.043 173.521 657.043 175.1C657.043 176.68 658.503 177.961 660.303 177.961Z" fill="#B2D4FF"/>
<path d="M647.892 178.012C649.693 178.012 651.152 176.731 651.152 175.152C651.152 173.572 649.693 172.291 647.892 172.291C646.092 172.291 644.632 173.572 644.632 175.152C644.632 176.731 646.092 178.012 647.892 178.012Z" fill="#B2D4FF"/>
<path d="M578.266 179.667L513.347 179.397C512.16 179.397 511.022 178.984 510.184 178.248C509.345 177.512 508.873 176.513 508.873 175.472C508.873 174.431 509.345 173.433 510.184 172.697C511.022 171.961 512.16 171.547 513.347 171.547L578.266 171.817C579.452 171.817 580.59 172.23 581.429 172.966C582.268 173.702 582.739 174.701 582.739 175.742C582.739 176.783 582.268 177.781 581.429 178.517C580.59 179.253 579.452 179.667 578.266 179.667Z" fill="#B2D4FF"/>
<path d="M669.483 305.512H515.218C511.504 305.512 508.493 308.153 508.493 311.412V408.243C508.493 411.501 511.504 414.143 515.218 414.143H669.483C673.197 414.143 676.208 411.501 676.208 408.243V311.412C676.208 308.153 673.197 305.512 669.483 305.512Z" fill="url(#paint7_linear_570_157)"/>
<path d="M517.22 322.648C516.034 322.648 514.896 322.235 514.057 321.499C513.218 320.763 512.747 319.764 512.747 318.723C512.747 317.682 513.218 316.684 514.057 315.948C514.896 315.212 516.034 314.798 517.22 314.798L650.246 314.683C651.432 314.683 652.57 315.096 653.409 315.832C654.248 316.569 654.719 317.567 654.719 318.608C654.719 319.649 654.248 320.647 653.409 321.383C652.57 322.119 651.432 322.533 650.246 322.533L517.22 322.648Z" fill="url(#paint8_linear_570_157)"/>
<path d="M517.133 339.593C515.946 339.593 514.809 339.179 513.97 338.443C513.131 337.707 512.66 336.709 512.66 335.668C512.66 334.627 513.131 333.629 513.97 332.892C514.809 332.156 515.946 331.743 517.133 331.743L626.652 331.512C627.838 331.512 628.976 331.925 629.815 332.662C630.654 333.398 631.125 334.396 631.125 335.437C631.125 336.478 630.654 337.476 629.815 338.212C628.976 338.948 627.838 339.362 626.652 339.362L517.147 339.593H517.133Z" fill="url(#paint9_linear_570_157)"/>
<path d="M517.133 356.961C515.946 356.961 514.809 356.547 513.97 355.811C513.131 355.075 512.66 354.076 512.66 353.035C512.66 351.994 513.131 350.996 513.97 350.26C514.809 349.524 515.946 349.11 517.133 349.11L650.158 348.867C651.345 348.867 652.482 349.28 653.321 350.016C654.16 350.752 654.631 351.751 654.631 352.792C654.631 353.833 654.16 354.831 653.321 355.567C652.482 356.303 651.345 356.717 650.158 356.717L517.133 356.961Z" fill="url(#paint10_linear_570_157)"/>
<path d="M670.554 419.298L515.586 419.441C511.856 419.444 508.836 422.1 508.84 425.373L508.956 522.64C508.96 525.912 511.987 528.563 515.717 528.559L670.684 528.417C674.414 528.414 677.434 525.758 677.43 522.485L677.314 425.218C677.31 421.945 674.284 419.295 670.554 419.298Z" fill="url(#paint11_linear_570_157)"/>
<path d="M516.855 520.773C516.243 520.804 515.63 520.724 515.055 520.54C514.479 520.356 513.952 520.07 513.507 519.701C513.061 519.332 512.706 518.886 512.464 518.393C512.221 517.899 512.096 517.367 512.096 516.829C512.096 516.291 512.221 515.759 512.464 515.265C512.706 514.771 513.061 514.326 513.507 513.957C513.952 513.588 514.479 513.302 515.055 513.118C515.63 512.933 516.243 512.854 516.855 512.885H580.649C581.839 512.885 582.98 513.299 583.822 514.038C584.664 514.776 585.136 515.778 585.136 516.822C585.136 517.867 584.664 518.868 583.822 519.607C582.98 520.345 581.839 520.76 580.649 520.76L516.855 520.824V520.773Z" fill="#DFE1E5"/>
<path d="M677.333 423.494L677.436 507.407L546.398 507.523H508.961L508.859 423.622C508.857 423.067 508.98 422.517 509.221 422.003C509.462 421.49 509.815 421.023 510.262 420.63C510.709 420.236 511.24 419.924 511.824 419.711C512.409 419.499 513.035 419.389 513.668 419.389L672.509 419.235C673.145 419.235 673.775 419.345 674.362 419.56C674.949 419.774 675.482 420.088 675.931 420.484C676.379 420.88 676.734 421.349 676.975 421.866C677.215 422.382 677.337 422.936 677.333 423.494Z" fill="url(#paint12_linear_570_157)"/>
<path d="M669.695 190.121L514.728 190.263C510.998 190.267 507.978 192.922 507.982 196.195L508.098 293.462C508.102 296.735 511.128 299.385 514.858 299.382L669.826 299.239C673.556 299.236 676.576 296.58 676.572 293.307L676.456 196.041C676.452 192.768 673.425 190.117 669.695 190.121Z" fill="white"/>
<path d="M516.022 291.607C514.831 291.607 513.69 291.192 512.848 290.454C512.007 289.715 511.534 288.714 511.534 287.669C511.534 286.625 512.007 285.623 512.848 284.885C513.69 284.146 514.831 283.731 516.022 283.731H579.815C580.963 283.789 582.043 284.23 582.832 284.963C583.622 285.696 584.061 286.667 584.061 287.676C584.061 288.685 583.622 289.655 582.832 290.389C582.043 291.122 580.963 291.563 579.815 291.62H516.036L516.022 291.607Z" fill="#DFE1E5"/>
<path d="M676.456 194.315L676.559 278.229L545.536 278.357H508.084L507.982 194.456C507.98 193.901 508.103 193.351 508.344 192.837C508.584 192.324 508.938 191.857 509.385 191.464C509.832 191.071 510.363 190.759 510.947 190.546C511.532 190.333 512.158 190.223 512.791 190.223L671.632 190.069C672.268 190.068 672.897 190.176 673.484 190.389C674.071 190.602 674.604 190.915 675.053 191.31C675.501 191.705 675.856 192.173 676.097 192.689C676.338 193.205 676.46 193.758 676.456 194.315Z" fill="url(#paint13_linear_570_157)"/>
<path fill-rule="evenodd" clip-rule="evenodd" d="M592.372 233.565L580.122 262.054C571.544 259.058 564.583 253.312 560.651 245.982L592.285 233.45L592.372 233.565Z" fill="#BBCBFF"/>
<path fill-rule="evenodd" clip-rule="evenodd" d="M592.372 203.243V233.565L592.285 233.501L560.651 245.982C558.636 242.085 557.638 237.844 557.727 233.565C557.727 233.04 557.727 232.501 557.727 231.975C558.025 224.496 561.608 217.409 567.726 212.196C567.799 212.196 567.843 212.119 567.843 212.08C571.002 209.226 574.794 206.969 578.985 205.449C583.176 203.929 587.677 203.178 592.212 203.243H592.372Z" fill="#C7D4FF" fill-opacity="0.3"/>
<path fill-rule="evenodd" clip-rule="evenodd" d="M580.122 262.054L592.372 233.565V203.243C596.568 203.211 600.736 203.837 604.681 205.09C609.22 206.643 613.331 209.026 616.741 212.08C622.964 217.318 626.578 224.501 626.798 232.065C626.798 232.569 626.798 233.069 626.798 233.565C626.895 237.548 626.052 241.506 624.324 245.19C622.596 248.873 620.019 252.204 616.756 254.974C613.602 257.865 609.802 260.155 605.594 261.7C601.386 263.245 596.86 264.012 592.299 263.952C588.147 263.933 584.028 263.291 580.122 262.054Z" fill="url(#paint14_linear_570_157)"/>
<path d="M384.458 438.116L383.961 440.425C382.894 444.517 379.81 450.892 372.617 460.499C372.617 460.499 366.127 470.222 350.369 468.26C348.201 467.983 345.995 468.442 344.2 469.542C337.431 473.711 319.129 483.652 296.047 484.999C292.153 485.232 288.243 485.207 284.353 484.922C279.135 484.528 273.979 483.646 268.974 482.292C265.9 481.483 262.887 480.502 259.955 479.355L263.653 452.329L266.402 432.332C266.402 432.332 292.948 439.361 306.075 438.886C315.863 438.45 325.349 435.77 333.587 431.113C343.001 425.687 344.974 419.12 346.962 409.897C347.706 406.58 349.912 403.654 353.102 401.756C356.291 399.859 360.205 399.143 363.993 399.764L368.729 400.546C370.211 400.679 371.678 400.919 373.114 401.265L378.231 402.111C380.265 402.45 382.063 403.483 383.23 404.984C384.397 406.484 384.839 408.33 384.458 410.115L382.543 419.094L379.532 433.101L380.701 433.294C381.923 433.505 383.001 434.129 383.703 435.031C384.406 435.933 384.677 437.041 384.458 438.116Z" fill="url(#paint15_linear_570_157)"/>
<path d="M296.004 484.986C292.109 485.219 288.199 485.194 284.309 484.909C279.106 484.516 273.966 483.639 268.975 482.292C268.682 477.739 266.913 450.559 266.796 448.711C267.673 461.564 278.959 482.78 296.004 484.986Z" fill="#CD6161"/>
<path d="M274.237 560.537C270.305 589.038 264.384 621.003 264.384 621.003L260.452 633.958L219.097 628.827V628.519C219.01 624.722 218.917 620.926 218.82 617.129L218.381 598.735L218.206 591.552C218.206 591.039 218.206 590.513 218.206 589.987C218.219 589.655 218.268 589.324 218.352 589C218.437 588.71 218.486 588.413 218.498 588.114C218.145 588.124 217.793 588.158 217.445 588.217L216.364 588.371C215.656 588.472 214.957 588.618 214.273 588.807C213.558 588.955 212.884 589.228 212.292 589.609C211.699 589.99 211.2 590.472 210.823 591.026C210.261 592.086 209.862 593.208 209.639 594.361C209.157 596.157 208.791 597.966 208.47 599.8C206.999 609.092 206.593 618.489 207.257 627.852L155.084 625.287C155.084 625.287 154.119 609.612 153.491 594.053C153.491 593.643 153.491 593.232 153.491 592.835C153.315 588.551 153.169 584.318 153.082 580.457C153.082 580.021 153.082 579.597 153.082 579.174C152.95 573.299 152.965 568.399 153.199 565.68L154.178 409.32C154.178 409.32 152.219 362.668 154.178 348.854C156.137 335.039 169.103 323.982 182.976 318.146C188.055 316.019 193.479 314.595 199.056 313.926C199.246 313.926 200.664 312.874 200.839 312.772C202.469 311.784 204.162 310.88 205.912 310.065C211.262 307.678 217.102 306.252 223.088 305.871C224.915 305.743 238.92 305.011 238.92 307.384C238.92 307.923 237.531 308.205 237.122 308.334C235.66 308.744 234.096 309.026 232.575 309.321C228.775 310.027 224.915 310.604 221.144 311.515C220.471 311.681 219.799 311.823 219.141 312.028C218.577 312.171 218.071 312.451 217.679 312.836C218.188 312.678 218.72 312.583 219.258 312.554C219.872 312.554 220.486 312.554 221.1 312.425C221.714 312.297 222.401 312.323 223.044 312.297C226.085 312.143 229.125 312.092 232.166 312.092C235.207 312.092 238.116 312.092 241.083 312.361C243.932 312.556 246.734 313.114 249.401 314.016C252.441 315.106 249.781 315.748 248.334 315.914C245.672 316.149 242.998 316.256 240.323 316.235C238.349 316.235 236.376 316.235 234.476 316.299C232.575 316.363 230.719 316.299 228.848 316.402C227.776 316.407 226.709 316.537 225.675 316.787C226.387 317.143 227.136 317.44 227.912 317.672C228.658 317.979 229.374 318.3 230.134 318.634C231.596 319.313 233.058 320.045 234.519 320.827L234.753 320.942C235.894 321.571 237.019 322.225 238.116 322.931C258.786 335.886 260.759 358.346 261.739 367.825C262.718 377.304 269.311 433.55 269.311 433.55C269.311 433.55 278.169 531.971 274.237 560.537Z" fill="url(#paint16_linear_570_157)"/>
<path d="M115.908 557.856C113.068 560.412 111.084 563.605 110.174 567.085C109.264 570.564 109.462 574.196 110.747 577.584C111.785 580.327 113.805 582.703 116.507 584.356C119.262 586.044 122.546 586.94 125.906 586.922C125.419 586.697 124.998 586.376 124.676 585.984C124.354 585.592 124.14 585.141 124.05 584.664C123.29 581.791 123.743 578.866 123.699 575.955C123.655 573.043 122.427 571.029 121.638 568.361C120.331 563.949 119.735 559.398 119.869 554.842C118.422 555.711 117.093 556.722 115.908 557.856Z" fill="#CD6161"/>
<path d="M167.276 583.394C163.54 587.41 158.817 590.633 153.462 592.822C153.286 588.538 153.14 584.305 153.052 580.444C153.052 580.008 153.052 579.585 153.052 579.161C162.92 574.621 165.931 565.334 164.981 557.022C164.001 548.39 158.096 536.294 156.122 522.479C155.633 518.954 155.588 515.392 155.991 511.858C156.35 508.73 157.02 505.636 157.993 502.61C158.438 500.87 159.152 499.192 160.113 497.621C159.996 498.518 159.894 499.404 159.879 500.301C159.544 507.739 160.156 515.187 161.706 522.505C163.574 529.747 165.957 536.88 168.84 543.862C173.956 556.766 178.225 571.735 167.276 583.394Z" fill="#CD6161"/>
<path d="M153.871 417.298C153.871 417.298 156.093 443.812 137.411 454.227C118.729 464.643 106.888 483.601 104.915 499.121C102.941 514.642 109.841 535.409 112.794 544.913C115.747 554.418 120.673 572.555 120.673 572.555C120.673 572.555 115.747 573.415 116.726 580.329C117.706 587.242 121.652 587.242 129.532 587.242C129.532 587.242 145.275 586.37 156.108 579.469C166.94 572.568 165.96 555.278 163.007 548.364C163.007 548.364 148.228 519.85 160.084 496.53L153.871 417.298Z" fill="url(#paint17_linear_570_157)"/>
<path d="M245.688 450.777H212.212C201.337 450.777 192.521 458.512 192.521 468.054V548.389C192.521 557.932 201.337 565.667 212.212 565.667H245.688C256.563 565.667 265.379 557.932 265.379 548.389V468.054C265.379 458.512 256.563 450.777 245.688 450.777Z" fill="#FFCCCC"/>
<path d="M225.997 423.135C242.854 423.135 256.52 416.364 256.52 408.012C256.52 399.659 242.854 392.889 225.997 392.889C209.14 392.889 195.474 399.659 195.474 408.012C195.474 416.364 209.14 423.135 225.997 423.135Z" fill="#FFCCCC"/>
<path d="M205.21 404.112C211.774 406.727 218.912 408.046 226.12 407.978C233.329 407.909 240.432 406.454 246.93 403.715" stroke="#2B2E40" stroke-width="2.69" stroke-linecap="round" stroke-linejoin="round"/>
<path d="M303.78 661.561H217.138V666.743H303.78V661.561Z" fill="#C0B6F2"/>
<path d="M209.259 661.561H138.376V666.743H209.259V661.561Z" fill="#C0B6F2"/>
<path d="M207.125 624.12L188.575 624.415L188.472 624.338C187.493 621.594 185.535 619.198 182.888 617.503C180.241 615.808 177.043 614.904 173.766 614.923H163.227C162.085 614.911 160.953 615.104 159.9 615.49C158.847 615.877 157.895 616.448 157.102 617.168C156.31 617.889 155.693 618.744 155.291 619.681C154.889 620.619 154.709 621.618 154.763 622.619L154.953 625.813C152.731 633.65 143.258 648.696 140.335 652.89C138.572 655.49 137.876 658.541 138.361 661.536H209.245V651.159C209.259 646.874 207.125 624.12 207.125 624.12Z" fill="#344563"/>
<path d="M280.143 639.961C276.006 639.23 272.673 636.318 269.822 633.765C266.212 630.546 265.13 626.069 264.969 621.554V618.745C264.969 618.322 264.969 617.911 264.969 617.462H257.982C255.497 617.464 253.071 618.125 251.023 619.359C248.975 620.593 247.4 622.342 246.506 624.376H218.995C217.147 636.705 216.526 649.151 217.138 661.574H303.766C302.786 642.552 285.055 640.82 280.143 639.961Z" fill="#344563"/>
<path d="M236.829 652.044C242.263 652.044 246.667 648.179 246.667 643.411C246.667 638.644 242.263 634.779 236.829 634.779C231.396 634.779 226.991 638.644 226.991 643.411C226.991 648.179 231.396 652.044 236.829 652.044Z" fill="#00E7FF"/>
<path d="M195.474 652.916C198.195 652.916 200.401 649.051 200.401 644.283C200.401 639.516 198.195 635.651 195.474 635.651C192.754 635.651 190.548 639.516 190.548 644.283C190.548 649.051 192.754 652.916 195.474 652.916Z" fill="#00E7FF"/>
<path d="M207.3 371.301H207.286C205.114 371.301 203.354 372.846 203.354 374.751V381.678C203.354 383.584 205.114 385.128 207.286 385.128H207.3C209.472 385.128 211.233 383.584 211.233 381.678V374.751C211.233 372.846 209.472 371.301 207.3 371.301Z" fill="white"/>
<path d="M246.682 371.301H246.667C244.495 371.301 242.735 372.846 242.735 374.751V381.678C242.735 383.584 244.495 385.128 246.667 385.128H246.682C248.854 385.128 250.614 383.584 250.614 381.678V374.751C250.614 372.846 248.854 371.301 246.682 371.301Z" fill="white"/>
<path d="M244.708 582.945C244.708 582.945 223.921 593.309 218.556 606.265L218.118 588.127C218.118 588.127 235.835 587.268 244.708 582.945Z" fill="#CD6161"/>
<path d="M368.13 446.377C369.807 442.204 372.748 438.51 376.637 435.692C378.099 434.615 375.994 432.793 374.547 433.858C370.286 436.985 367.081 441.074 365.279 445.684C364.65 447.262 367.501 447.942 368.203 446.377H368.13Z" fill="#E68181"/>
<path d="M673.489 464.399H710.356V455.317H673.489V464.399Z" fill="#303048"/>
<path d="M614.198 550.275C615.945 550.993 617.875 551.299 619.798 551.162C621.721 551.025 623.57 550.449 625.161 549.493C659.251 528.97 662.964 485.64 663.169 483.806C663.272 481.283 662.251 478.824 660.323 476.951C658.395 475.077 655.712 473.936 652.841 473.769C649.97 473.602 647.138 474.423 644.946 476.057C642.753 477.691 641.372 480.011 641.095 482.523C641.095 483.088 637.806 518.439 612.707 533.536C611.113 534.502 609.836 535.818 609.003 537.353C608.171 538.888 607.812 540.587 607.963 542.282C608.114 543.976 608.77 545.607 609.864 547.009C610.958 548.412 612.452 549.538 614.198 550.275Z" fill="#2B2E40"/>
<path d="M618.66 548.799L611.212 536.208C609.267 532.919 604.652 531.637 600.904 533.344L586.554 539.879C582.807 541.586 581.345 545.635 583.29 548.924L590.738 561.515C592.683 564.804 597.298 566.086 601.046 564.379L615.396 557.844C619.144 556.137 620.605 552.088 618.66 548.799Z" fill="#505F79"/>
<path d="M683.853 455.587H720.837C723.38 455.587 725.442 453.778 725.442 451.546V392.081C725.442 389.849 723.38 388.04 720.837 388.04H683.853C681.31 388.04 679.248 389.849 679.248 392.081V451.546C679.248 453.778 681.31 455.587 683.853 455.587Z" fill="url(#paint18_linear_570_157)"/>
<path d="M663.037 455.689H699.992C702.543 455.689 704.611 453.875 704.611 451.636V392.081C704.611 389.842 702.543 388.027 699.992 388.027H663.037C660.486 388.027 658.418 389.842 658.418 392.081V451.636C658.418 453.875 660.486 455.689 663.037 455.689Z" fill="url(#paint19_linear_570_157)"/>
<path d="M650.451 412.847H710.283C712.511 412.847 714.318 411.262 714.318 409.307V409.294C714.318 407.339 712.511 405.754 710.283 405.754H650.451C648.222 405.754 646.416 407.339 646.416 409.294V409.307C646.416 411.262 648.222 412.847 650.451 412.847Z" fill="#303047"/>
<path d="M689.174 428.124H701.351C702.469 428.128 703.553 427.788 704.413 427.162C705.274 426.536 705.856 425.664 706.058 424.7L708.982 410.462H681.514L684.438 424.751C684.653 425.71 685.245 426.573 686.11 427.19C686.976 427.806 688.06 428.137 689.174 428.124Z" fill="#303047"/>
<path d="M659.148 428.124H671.325C672.439 428.125 673.517 427.782 674.372 427.156C675.227 426.53 675.804 425.661 676.003 424.699L678.927 410.41H651.474L654.398 424.699C654.598 425.672 655.186 426.55 656.056 427.177C656.927 427.804 658.022 428.14 659.148 428.124Z" fill="#303047"/>
<path d="M659.909 424.802H670.565C671.096 424.801 671.608 424.634 672.01 424.331C672.413 424.027 672.678 423.607 672.758 423.147L674.819 411.064H655.64L657.716 423.147C657.796 423.607 658.061 424.027 658.463 424.331C658.866 424.634 659.378 424.801 659.909 424.802Z" fill="#00CCFF"/>
<path d="M653.35 411.79L673.651 426.277L678.032 421.55L657.731 407.064L653.35 411.79Z" fill="#67FFCC"/>
<path d="M689.978 424.802H700.635C701.165 424.801 701.678 424.634 702.08 424.331C702.482 424.027 702.747 423.607 702.828 423.147L704.903 411.064H685.681L687.756 423.147C687.834 423.613 688.103 424.038 688.512 424.342C688.921 424.647 689.442 424.81 689.978 424.802Z" fill="#00CCFF"/>
<path d="M682.958 411.778L703.258 426.265L707.639 421.538L687.339 407.052L682.958 411.778Z" fill="#67FFCC"/>
<path d="M681.544 647.606L660.873 652.018C652.088 619.421 652.088 585.476 660.873 552.879L681.544 557.291C673.533 586.986 673.533 617.911 681.544 647.606Z" fill="#2B2E40"/>
<path d="M679.409 638.332C679.409 638.332 683.181 650.004 683.341 652.018C683.502 654.032 683.341 667 683.341 667H626.711C626.711 667 623.919 654.032 639.019 652.018C654.12 650.004 656.327 644.322 656.707 639.833C656.946 637.516 656.946 635.184 656.707 632.868C656.707 632.868 663.154 631.585 664.952 634.15C665.493 634.92 665.96 635.613 666.341 636.228C666.797 636.947 667.469 637.541 668.283 637.948C669.097 638.356 670.023 638.559 670.96 638.537L679.409 638.332Z" fill="#EAE6FF"/>
<path d="M683.415 661.959H626.506V667H683.415V661.959Z" fill="url(#paint20_linear_570_157)"/>
<path d="M673.211 658.355C676.231 658.355 678.678 656.207 678.678 653.557C678.678 650.908 676.231 648.76 673.211 648.76C670.192 648.76 667.744 650.908 667.744 653.557C667.744 656.207 670.192 658.355 673.211 658.355Z" fill="#88ACFF"/>
<path d="M729.959 647.606L709.303 652.018C700.518 619.421 700.518 585.476 709.303 552.879L729.959 557.291C721.948 586.986 721.948 617.911 729.959 647.606Z" fill="#2B2E40"/>
<path d="M727.532 638.345C727.617 638.344 727.7 638.367 727.768 638.411C727.837 638.455 727.887 638.517 727.912 638.588C728.453 640.269 731.611 650.133 731.772 652.018C731.932 653.904 731.772 667 731.772 667H675.141C675.141 667 672.349 654.032 687.449 652.018C702.55 650.004 704.757 644.322 705.137 639.833C705.376 637.516 705.376 635.184 705.137 632.868C705.137 632.868 711.569 631.585 713.382 634.15C713.923 634.92 714.376 635.625 714.771 636.228C715.226 636.945 715.895 637.538 716.707 637.945C717.518 638.352 718.441 638.557 719.375 638.537L727.532 638.345Z" fill="#B2D4FF"/>
<path d="M727.825 638.332C727.825 638.332 731.596 650.004 731.772 652.018C731.947 654.032 731.772 667 731.772 667H675.141C675.141 667 672.349 654.032 687.449 652.018C702.55 650.004 704.757 644.322 705.137 639.833C705.376 637.516 705.376 635.184 705.137 632.868C705.137 632.868 711.569 631.585 713.382 634.15C713.923 634.92 714.376 635.613 714.771 636.228C715.226 636.945 715.895 637.538 716.707 637.945C717.518 638.352 718.441 638.557 719.375 638.537L727.825 638.332Z" fill="#F2EDF2"/>
<path d="M731.845 661.959H674.936V667H731.845V661.959Z" fill="url(#paint21_linear_570_157)"/>
<path d="M721.641 658.355C724.661 658.355 727.108 656.207 727.108 653.557C727.108 650.908 724.661 648.76 721.641 648.76C718.622 648.76 716.174 650.908 716.174 653.557C716.174 656.207 718.622 658.355 721.641 658.355Z" fill="#88ACFF"/>
<path d="M673.43 568.913H733.95C738.842 568.913 742.808 565.432 742.808 561.139V474.314C742.808 470.021 738.842 466.541 733.95 466.541H673.43C668.538 466.541 664.572 470.021 664.572 474.314V561.139C664.572 565.432 668.538 568.913 673.43 568.913Z" fill="url(#paint22_linear_570_157)"/>
<path d="M647.291 566.212L707.781 566.434C712.681 566.452 716.671 562.981 716.691 558.681L717.106 471.69C717.127 467.39 713.171 463.889 708.27 463.871L647.781 463.649C642.88 463.631 638.891 467.102 638.871 471.402L638.455 558.393C638.435 562.693 642.391 566.194 647.291 566.212Z" fill="url(#paint23_linear_570_157)"/>
<g opacity="0.49">
<path opacity="0.49" d="M664.221 484.281V504.008" stroke="#303048" stroke-width="2.17" stroke-linecap="round" stroke-linejoin="round"/>
<path opacity="0.49" d="M657.248 484.281V504.008" stroke="#303048" stroke-width="2.17" stroke-linecap="round" stroke-linejoin="round"/>
<path opacity="0.49" d="M650.275 484.281V504.008" stroke="#303048" stroke-width="2.17" stroke-linecap="round" stroke-linejoin="round"/>
<path opacity="0.49" d="M672.933 487.064C674.249 487.064 675.316 486.128 675.316 484.973C675.316 483.818 674.249 482.882 672.933 482.882C671.617 482.882 670.551 483.818 670.551 484.973C670.551 486.128 671.617 487.064 672.933 487.064Z" fill="#FF6666"/>
<path opacity="0.49" d="M672.933 494.568C674.249 494.568 675.316 493.631 675.316 492.477C675.316 491.322 674.249 490.386 672.933 490.386C671.617 490.386 670.551 491.322 670.551 492.477C670.551 493.631 671.617 494.568 672.933 494.568Z" fill="#FF9966"/>
</g>
<path d="M765.452 553.905C767.244 553.278 768.818 552.249 770.016 550.921C771.214 549.593 771.994 548.012 772.278 546.337C778.389 510.422 744.752 478.56 743.305 477.213C741.248 475.543 738.546 474.62 735.744 474.63C732.941 474.64 730.248 475.583 728.207 477.268C726.166 478.953 724.929 481.255 724.747 483.709C724.565 486.163 725.451 488.586 727.225 490.489C727.664 490.899 755 517.053 750.454 543.464C750.158 545.155 750.379 546.885 751.093 548.478C751.807 550.07 752.99 551.468 754.52 552.529C756.05 553.59 757.873 554.276 759.803 554.518C761.734 554.759 763.703 554.548 765.51 553.905H765.452Z" fill="#2B2E40"/>
<path d="M767.404 550.034L751.824 546.243C747.755 545.253 743.542 547.344 742.414 550.915L738.093 564.585C736.965 568.156 739.348 571.852 743.417 572.843L758.997 576.634C763.066 577.624 767.279 575.532 768.407 571.962L772.728 558.291C773.856 554.721 771.472 551.024 767.404 550.034Z" fill="#505F79"/>
<path d="M524.913 478.248L509.154 482.281L513.267 494.656L529.027 490.623L524.913 478.248Z" fill="#E86456"/>
<path d="M425.462 264.491C425.048 262.284 425.024 260.035 425.389 257.821C425.758 255.529 425.709 253.199 425.243 250.92C424.483 248.355 423.606 245.789 422.802 243.224C422.451 242.095 421.881 237.657 420.141 237.414C419.659 237.349 419.264 237.721 419.016 238.093C417.919 239.71 418.548 240.954 418.767 242.647C419.143 245.444 419.343 248.258 419.366 251.074C419.366 252.806 419.747 255.153 417.905 256.205L416.165 251.279C416.016 250.85 415.69 250.485 415.25 250.257C414.811 250.028 414.289 249.952 413.789 250.044C413.288 250.135 412.845 250.388 412.546 250.752C412.248 251.116 412.115 251.565 412.174 252.011L412.686 256.115C413.081 259.271 413.227 263.94 416.121 266.248C417.017 267.382 417.675 268.646 418.065 269.981L425.93 267.172L425.462 264.491Z" fill="#F17B6B"/>
<path d="M401.386 323.687C398.863 323.286 396.284 323.23 393.741 323.521C391.128 323.815 388.478 323.741 385.891 323.303C382.967 322.61 380.044 321.815 377.208 321.084C375.936 320.763 370.878 320.199 370.629 318.672C370.629 318.262 370.995 317.902 371.404 317.697C373.261 316.761 374.679 317.312 376.608 317.531C379.79 317.887 382.991 318.097 386.198 318.159C388.186 318.159 390.846 318.531 392.045 316.876L386.446 315.299C385.965 315.159 385.56 314.868 385.31 314.482C385.059 314.095 384.981 313.641 385.09 313.207C385.199 312.773 385.488 312.39 385.901 312.131C386.313 311.873 386.82 311.759 387.323 311.81L392.001 312.297C395.583 312.682 400.904 312.862 403.491 315.427C404.775 316.225 406.21 316.815 407.73 317.171L404.441 324.047L401.386 323.687Z" fill="#F17B6B"/>
<path d="M497.998 297.238C486.487 302.535 474.487 306.968 462.125 310.488C456.277 312.015 452.433 314.465 446.878 312.079C444.102 310.735 441.626 308.962 439.569 306.846C430.593 298.329 418.548 276.446 415.843 271.418C415.668 271.131 415.624 270.797 415.719 270.483C415.814 270.168 416.041 269.897 416.355 269.725L426.164 263.696C426.502 263.491 426.919 263.411 427.324 263.473C427.729 263.536 428.089 263.735 428.327 264.029C430.345 266.531 435.739 273.226 443.37 283C445.236 285.447 447.242 287.81 449.378 290.081C450.591 291.402 451.926 292.633 453.368 293.762C453.972 294.201 454.708 294.476 455.487 294.553C456.266 294.631 457.054 294.507 457.754 294.198C475.076 286.31 486.318 280.268 491.069 277.626C491.244 277.523 491.42 277.421 491.61 277.331C494.9 283.637 497.055 290.352 497.998 297.238Z" fill="#1F2231"/>
<path d="M435.33 310.412C436.836 312.121 438.58 313.659 440.519 314.991C442.761 316.367 445.168 317.524 447.697 318.441C449.319 319.07 451.526 319.903 453.31 319.134C456.35 317.851 456.394 314.452 454.465 312.4C453.078 311.168 451.342 310.282 449.436 309.834C447.454 309.239 445.643 308.271 444.13 307C442.752 305.623 441.116 304.465 439.291 303.575C436.864 302.626 433.312 303.164 433.049 305.909C433.157 307.604 433.968 309.205 435.33 310.412Z" fill="#454D6A"/>
<path d="M467.679 483.753L451.267 484.088L451.608 496.975L468.02 496.641L467.679 483.753Z" fill="#E86456"/>
<path d="M470.355 517.797L470.428 520.453L431.543 521.248C431.325 520.38 431.217 519.494 431.222 518.605C431.222 516.04 432.187 512.333 437.332 511.268C445.504 509.588 451.877 505.278 451.044 490.502C451.044 490.502 458.777 488.834 457.666 495.632L468.045 495.414C468.34 499.238 469.015 503.032 470.062 506.753C471.144 509.716 470.355 517.797 470.355 517.797Z" fill="#25293A"/>
<path d="M463.469 514.155C465.738 514.155 467.577 512.541 467.577 510.55C467.577 508.56 465.738 506.946 463.469 506.946C461.201 506.946 459.362 508.56 459.362 510.55C459.362 512.541 461.201 514.155 463.469 514.155Z" fill="#00E7FF"/>
<path d="M470.813 517.857L429.381 518.682L429.618 527.851L471.05 527.026L470.813 517.857Z" fill="#00E7FF"/>
<path d="M450.05 488.706C449.734 488.702 449.428 488.609 449.178 488.44C448.928 488.272 448.746 488.036 448.661 487.769C447.667 484.447 447.068 480.946 446.337 477.585C445.431 473.378 444.597 469.158 443.837 464.925C442.346 456.613 441.133 448.258 440.197 439.861C437.42 414.759 439.92 390.772 451.263 367.402C454.099 361.54 460.166 348.289 469.229 350.342C475.354 351.714 477.401 359.013 477.737 363.733C478.745 377.496 477.225 391.285 475.179 404.92C473.863 413.758 472.08 422.545 471.393 431.434C470.705 440.323 471.773 448.994 472.971 457.793L474.974 472.48C475.603 477.059 476.787 481.895 476.991 486.589C476.993 486.906 476.862 487.213 476.621 487.45C476.381 487.687 476.049 487.837 475.69 487.872C470.837 488.077 454.479 488.552 450.05 488.706Z" fill="url(#paint24_linear_570_157)"/>
<path d="M443.956 428.041L443.883 428.046C436.514 428.495 430.954 434.1 431.466 440.567L432.053 447.989C432.564 454.455 438.953 459.333 446.322 458.885L446.395 458.88C453.765 458.431 459.324 452.825 458.813 446.359L458.226 438.937C457.714 432.471 451.326 427.593 443.956 428.041Z" fill="#454D6A"/>
<path d="M499.942 370.839L448.252 374.918C448.968 363.374 447.945 351.984 447.331 340.401C446.814 330.995 446.678 321.554 446.922 312.079C446.922 310.258 447.039 308.436 447.097 306.615C447.2 301.048 447.97 295.507 449.392 290.081C452.389 279.691 459.04 271.636 473.673 267.865C476.246 267.198 478.833 266.287 481.45 266.98L481.83 267.095C483.731 267.883 485.378 269.073 486.625 270.558C488.613 272.625 490.302 274.9 491.653 277.331C494.943 283.637 497.099 290.353 498.041 297.238C498.743 301.433 499.182 305.563 499.576 309.373C500.059 314.542 501.521 370.698 499.942 370.839Z" fill="#25293A"/>
<path d="M458.426 281.012C457.549 285.899 455.269 297.277 450.532 313.888C450.33 314.553 449.909 315.151 449.321 315.607C448.734 316.064 448.006 316.358 447.229 316.453C444.744 316.761 440.095 316.851 431.426 315.902C418.022 314.452 408.739 313.567 405.245 313.234C404.839 313.201 404.435 313.309 404.118 313.534C403.801 313.759 403.597 314.084 403.55 314.439L402.205 324.88C402.159 325.199 402.244 325.521 402.445 325.789C402.646 326.057 402.95 326.254 403.301 326.343C409.382 327.882 436.046 334.462 449.261 334.193C464.244 333.885 463.879 328.421 467.343 321.764C470.808 315.106 481.304 290.812 481.435 279.178C481.538 270.751 472.752 268.237 465.648 271.726C463.719 272.691 462.067 274.029 460.816 275.638C459.564 277.247 458.747 279.085 458.426 281.012Z" fill="#1F2231"/>
<path d="M457.549 337.233C459.809 336.375 461.94 335.276 463.893 333.962C465.979 332.414 467.858 330.662 469.492 328.741C470.603 327.459 472.08 325.842 471.67 324.149C470.983 321.225 467.285 320.301 464.522 321.481C462.836 322.354 461.447 323.607 460.502 325.111C459.357 326.667 457.835 327.981 456.043 328.959C454.182 329.787 452.496 330.889 451.059 332.217C449.392 334.039 449.114 337.194 452.067 338.105C453.807 338.631 455.97 337.861 457.549 337.233Z" fill="#454D6A"/>
<path d="M469.01 291.287C472.53 291.287 475.383 288.783 475.383 285.694C475.383 282.605 472.53 280.102 469.01 280.102C465.49 280.102 462.636 282.605 462.636 285.694C462.636 288.783 465.49 291.287 469.01 291.287Z" fill="#00E7FF"/>
<path d="M462.075 293.482L461.257 296.554C461.14 296.996 461.452 297.437 461.955 297.541L468.746 298.932C469.249 299.036 469.752 298.761 469.869 298.32L470.687 295.247C470.805 294.806 470.492 294.364 469.989 294.261L463.199 292.869C462.696 292.766 462.193 293.04 462.075 293.482Z" fill="#00E7FF"/>
<path d="M453.324 259.168C453.324 259.168 449.86 270.135 448.939 272.559L454.289 271.469L463.703 260.63L453.324 259.168Z" fill="#232048"/>
<path d="M455.853 247.919C456.073 247.919 455.079 249.291 454.991 249.394C454.469 249.945 453.781 250.357 453.006 250.584C452.232 250.81 451.4 250.842 450.606 250.677C449.802 250.6 448.998 250.484 448.194 250.446C448.062 250.446 445.84 250.343 446.059 250.651C446.059 250.651 447.521 252.742 452.14 252.896C456.76 253.05 459.83 248.022 459.83 248.022L455.853 247.919Z" fill="#232638"/>
<path d="M450.006 235.438C450.006 235.438 446.322 238.837 446.015 239.787C445.708 240.736 446.542 241.518 447.916 242.442C449.29 243.365 450.006 235.438 450.006 235.438Z" fill="#E86456"/>
<path d="M450.489 233.45L446.79 245.661C446.775 245.716 446.783 245.773 446.813 245.822C446.842 245.872 446.892 245.91 446.951 245.931C450.718 247.175 454.646 248.006 458.645 248.406C458.645 248.406 457.534 254.627 446.162 250.677C446.162 250.677 444.7 255.807 445.387 257.68C446.074 259.553 447.419 260.938 452.696 261.092C455.255 261.108 457.807 261.314 460.327 261.708L470.705 238.286L450.489 233.45Z" fill="#F17B6B"/>
<path d="M453.189 235.511L452.242 238.368C452.048 238.953 452.431 239.565 453.098 239.735C453.764 239.906 454.462 239.569 454.656 238.984L455.603 236.127C455.797 235.542 455.414 234.93 454.747 234.76C454.081 234.589 453.383 234.926 453.189 235.511Z" fill="#21304A"/>
<path d="M505.57 229.782C505.95 237.08 506.505 244.468 504.561 251.651C503.772 254.55 502.544 257.731 499.956 259.784C497.603 261.656 494.635 261.81 491.653 262.157C489.241 262.439 485.397 261.669 483.862 263.76C483.313 264.722 482.868 265.727 482.532 266.762C481.362 269.404 478.906 270.687 476.158 271.815C476.041 271.213 476.012 270.533 475.953 269.955C474.17 273.021 470.822 274.15 466.992 274.535L467.066 272.867C466.848 273.613 466.33 274.265 465.607 274.702C464.884 275.138 464.005 275.329 463.133 275.24C459.786 275.125 455.035 274.548 453.061 276.151C454.171 270.63 456.346 265.316 459.493 260.438C464.624 252.652 469.492 239.812 469.492 239.812C469.492 239.812 448.223 234.463 446.849 233.168C445.474 231.872 446.849 221.418 452.886 215.749C460.049 208.976 470.428 208.604 479.886 211.106C490.688 213.979 504.532 218.212 505.57 229.782Z" fill="url(#paint25_linear_570_157)"/>
<path d="M538.753 508.716L539.616 511.281L502.31 520.94C501.837 520.15 501.469 519.315 501.214 518.451C500.453 515.963 500.278 512.179 504.927 509.973C512.323 506.484 517.191 500.879 512.002 486.795C512.002 486.795 518.975 483.408 519.94 490.284L529.88 487.718C531.305 491.342 533.091 494.848 535.216 498.198C537.116 500.737 538.753 508.716 538.753 508.716Z" fill="#F17B6B"/>
<path d="M538.753 508.716L539.616 511.281L502.31 520.94C501.837 520.15 501.469 519.315 501.214 518.451C500.453 515.963 500.278 512.179 504.927 509.973C512.323 506.484 517.191 500.879 512.002 486.795C512.002 486.795 518.975 483.408 519.94 490.284L529.88 487.718C531.305 491.342 533.091 494.848 535.216 498.198C537.116 500.737 538.753 508.716 538.753 508.716Z" fill="#25293A"/>
<path d="M529.953 506.894C532.222 506.894 534.061 505.281 534.061 503.29C534.061 501.299 532.222 499.686 529.953 499.686C527.684 499.686 525.845 501.299 525.845 503.29C525.845 505.281 527.684 506.894 529.953 506.894Z" fill="#00E7FF"/>
<path d="M539.243 508.65L499.489 518.923L502.442 527.721L542.196 517.447L539.243 508.65Z" fill="#00E7FF"/>
<path d="M449.378 377.714C449.378 378.086 449.553 378.51 449.699 378.997C450.773 382.408 452.639 385.588 455.181 388.335C460.867 394.633 470.881 397.84 472.372 406.537C474.507 418.473 478.079 430.176 483.029 441.451C486.449 449.43 490.148 457.314 494.124 465.104C496.131 469.064 498.212 472.993 500.366 476.892C502.076 480.009 503.728 483.306 505.701 486.307C505.863 486.549 506.111 486.738 506.407 486.844C506.702 486.951 507.03 486.969 507.339 486.897C511.636 485.781 527.468 481.548 532.116 480.099C532.46 479.986 532.742 479.763 532.908 479.476C533.073 479.188 533.109 478.857 533.008 478.547C531.415 474.057 528.798 469.568 526.81 465.271C524.695 460.636 522.571 456.01 520.436 451.392C516.621 443.08 512.967 434.833 510.979 426.008C509.312 418.684 508.303 411.282 507.266 403.881C505.376 388.7 502.531 373.623 498.743 358.718C499.152 360.206 493.115 362.861 491.946 363.22C488.7 364.233 485.119 364.682 481.786 365.465C476.241 366.737 470.801 368.335 465.501 370.249C463.727 370.874 462.011 371.62 460.37 372.481C458.45 373.29 456.399 373.835 454.289 374.097C450.488 374.841 448.778 374.751 449.378 377.714Z" fill="#25293A"/>
<path d="M483.458 428.948L483.39 428.971C476.461 431.219 472.922 437.971 475.485 444.05L478.427 451.028C480.99 457.107 488.684 460.212 495.612 457.963L495.681 457.941C502.609 455.692 506.148 448.941 503.585 442.862L500.643 435.884C498.081 429.805 490.386 426.7 483.458 428.948Z" fill="#454D6A"/>
<path d="M477.62 352.112H473.439C472.454 352.112 471.656 352.812 471.656 353.677V362.437C471.656 363.302 472.454 364.002 473.439 364.002H477.62C478.605 364.002 479.403 363.302 479.403 362.437V353.677C479.403 352.812 478.605 352.112 477.62 352.112Z" fill="#454D6A"/>
<path d="M461.744 352.112H457.564C456.579 352.112 455.78 352.812 455.78 353.677V362.437C455.78 363.302 456.579 364.002 457.564 364.002H461.744C462.729 364.002 463.528 363.302 463.528 362.437V353.677C463.528 352.812 462.729 352.112 461.744 352.112Z" fill="#454D6A"/>
<path d="M491.96 352.112H487.78C486.795 352.112 485.996 352.812 485.996 353.677V362.437C485.996 363.302 486.795 364.002 487.78 364.002H491.96C492.945 364.002 493.744 363.302 493.744 362.437V353.677C493.744 352.812 492.945 352.112 491.96 352.112Z" fill="#454D6A"/>
<path d="M467.972 519.554H448.851C445.057 519.554 441.981 522.254 441.981 525.583C441.981 528.913 445.057 531.612 448.851 531.612H467.972C471.766 531.612 474.842 528.913 474.842 525.583C474.842 522.254 471.766 519.554 467.972 519.554Z" fill="#998DD9"/>
<path d="M475.997 546.824H456.877C453.082 546.824 450.006 549.524 450.006 552.853C450.006 556.183 453.082 558.882 456.877 558.882H475.997C479.792 558.882 482.868 556.183 482.868 552.853C482.868 549.524 479.792 546.824 475.997 546.824Z" fill="#998DD9"/>
<path d="M484.87 574.172H463.279C459.485 574.172 456.409 576.871 456.409 580.2C456.409 583.53 459.485 586.229 463.279 586.229H484.87C488.665 586.229 491.741 583.53 491.741 580.2C491.741 576.871 488.665 574.172 484.87 574.172Z" fill="#998DD9"/>
<path d="M489.431 601.608H470.311C466.516 601.608 463.44 604.308 463.44 607.637C463.44 610.967 466.516 613.666 470.311 613.666H489.431C493.226 613.666 496.302 610.967 496.302 607.637C496.302 604.308 493.226 601.608 489.431 601.608Z" fill="#998DD9"/>
<path d="M501.184 629.032H474.565C470.77 629.032 467.694 631.731 467.694 635.061C467.694 638.39 470.77 641.09 474.565 641.09H501.184C504.979 641.09 508.055 638.39 508.055 635.061C508.055 631.731 504.979 629.032 501.184 629.032Z" fill="#998DD9"/>
<path d="M370.176 454.33H430.652" stroke="#998DD9" stroke-width="9.4" stroke-linecap="round" stroke-linejoin="round"/>
<path d="M326.672 660.42L374.225 430.279C375.332 424.885 378.563 420.004 383.353 416.487C388.144 412.971 394.19 411.042 400.436 411.039V411.039C406.682 411.042 412.728 412.971 417.518 416.487C422.309 420.004 425.539 424.885 426.646 430.279L474.17 660.42" stroke="#C0B6F2" stroke-width="9.4" stroke-linecap="round" stroke-linejoin="round"/>
<defs>
<linearGradient id="paint0_linear_570_157" x1="338.177" y1="334.821" x2="498.53" y2="401.941" gradientUnits="userSpaceOnUse">
<stop stop-color="#AEC4D5"/>
<stop offset="1" stop-color="#7896AD"/>
</linearGradient>
<linearGradient id="paint1_linear_570_157" x1="238.698" y1="255.828" x2="553.112" y2="259.41" gradientUnits="userSpaceOnUse">
<stop stop-color="#DEEBFF"/>
<stop offset="1" stop-color="white"/>
</linearGradient>
<linearGradient id="paint2_linear_570_157" x1="268.668" y1="220.892" x2="408.695" y2="220.892" gradientUnits="userSpaceOnUse">
<stop stop-color="#C1C7D0"/>
<stop offset="1" stop-color="#DFE1E5"/>
</linearGradient>
<linearGradient id="paint3_linear_570_157" x1="21314.5" y1="4647.9" x2="30587.9" y2="4647.9" gradientUnits="userSpaceOnUse">
<stop stop-color="#C1C7D0"/>
<stop offset="1" stop-color="#DFE1E5"/>
</linearGradient>
<linearGradient id="paint4_linear_570_157" x1="25345.2" y1="5750.67" x2="38761.2" y2="5750.67" gradientUnits="userSpaceOnUse">
<stop stop-color="#C1C7D0"/>
<stop offset="1" stop-color="#DFE1E5"/>
</linearGradient>
<linearGradient id="paint5_linear_570_157" x1="24852.8" y1="6101.86" x2="38182.8" y2="6101.86" gradientUnits="userSpaceOnUse">
<stop stop-color="#C1C7D0"/>
<stop offset="1" stop-color="#DFE1E5"/>
</linearGradient>
<linearGradient id="paint6_linear_570_157" x1="17531.7" y1="5045.69" x2="24244.5" y2="5045.69" gradientUnits="userSpaceOnUse">
<stop stop-color="#C1C7D0"/>
<stop offset="1" stop-color="#DFE1E5"/>
</linearGradient>
<linearGradient id="paint7_linear_570_157" x1="517.008" y1="337.464" x2="684.235" y2="401.854" gradientUnits="userSpaceOnUse">
<stop stop-color="white"/>
<stop offset="0.33" stop-color="#FCFEFF"/>
<stop offset="0.53" stop-color="#F4F9FF"/>
<stop offset="0.7" stop-color="#E6F1FF"/>
<stop offset="0.84" stop-color="#D1E5FF"/>
<stop offset="0.98" stop-color="#B7D7FF"/>
<stop offset="1" stop-color="#B2D4FF"/>
</linearGradient>
<linearGradient id="paint8_linear_570_157" x1="512.747" y1="318.659" x2="654.763" y2="318.659" gradientUnits="userSpaceOnUse">
<stop stop-color="#DFE1E5"/>
<stop offset="1" stop-color="#C1C7D0"/>
</linearGradient>
<linearGradient id="paint9_linear_570_157" x1="42058.6" y1="2445.48" x2="51657.9" y2="2445.48" gradientUnits="userSpaceOnUse">
<stop stop-color="#DFE1E5"/>
<stop offset="1" stop-color="#C1C7D0"/>
</linearGradient>
<linearGradient id="paint10_linear_570_157" x1="50302.2" y1="2575.8" x2="64093.3" y2="2575.8" gradientUnits="userSpaceOnUse">
<stop stop-color="#DFE1E5"/>
<stop offset="1" stop-color="#C1C7D0"/>
</linearGradient>
<linearGradient id="paint11_linear_570_157" x1="59154.9" y1="40734.3" x2="78585.1" y2="40734.3" gradientUnits="userSpaceOnUse">
<stop stop-color="white"/>
<stop offset="0.33" stop-color="#FCFEFF"/>
<stop offset="0.53" stop-color="#F4F9FF"/>
<stop offset="0.7" stop-color="#E6F1FF"/>
<stop offset="0.84" stop-color="#D1E5FF"/>
<stop offset="0.98" stop-color="#B7D7FF"/>
<stop offset="1" stop-color="#B2D4FF"/>
</linearGradient>
<linearGradient id="paint12_linear_570_157" x1="592.475" y1="503.79" x2="594.174" y2="377.669" gradientUnits="userSpaceOnUse">
<stop stop-color="#B3BCD9"/>
<stop offset="1" stop-color="#79A6CF"/>
</linearGradient>
<linearGradient id="paint13_linear_570_157" x1="591.598" y1="274.612" x2="593.309" y2="148.503" gradientUnits="userSpaceOnUse">
<stop stop-color="#7B8AB8"/>
<stop offset="1" stop-color="#FFC2D1"/>
</linearGradient>
<linearGradient id="paint14_linear_570_157" x1="603.482" y1="203.243" x2="603.482" y2="263.901" gradientUnits="userSpaceOnUse">
<stop stop-color="white"/>
<stop offset="1" stop-color="#FFDDCE"/>
</linearGradient>
<linearGradient id="paint15_linear_570_157" x1="111.814" y1="442.337" x2="441.001" y2="442.337" gradientUnits="userSpaceOnUse">
<stop stop-color="#FE5746"/>
<stop offset="1" stop-color="#EE9AEB"/>
</linearGradient>
<linearGradient id="paint16_linear_570_157" x1="18349.2" y1="81157.7" x2="14401.6" y2="150470" gradientUnits="userSpaceOnUse">
<stop stop-color="#FE5746"/>
<stop offset="1" stop-color="#EE9AEB"/>
</linearGradient>
<linearGradient id="paint17_linear_570_157" x1="11069" y1="51762.4" x2="-2149.83" y2="57157.7" gradientUnits="userSpaceOnUse">
<stop stop-color="#FE5746"/>
<stop offset="1" stop-color="#EE9AEB"/>
</linearGradient>
<linearGradient id="paint18_linear_570_157" x1="702.331" y1="467.554" x2="702.331" y2="401.586" gradientUnits="userSpaceOnUse">
<stop stop-color="#77A6FF"/>
<stop offset="1" stop-color="#E5CDFF"/>
</linearGradient>
<linearGradient id="paint19_linear_570_157" x1="681.514" y1="633.137" x2="681.514" y2="363.284" gradientUnits="userSpaceOnUse">
<stop stop-color="#589DB5"/>
<stop offset="0.06" stop-color="#64A4BA"/>
<stop offset="0.28" stop-color="#94BDCD"/>
<stop offset="0.5" stop-color="#BAD2DC"/>
<stop offset="0.69" stop-color="#D5E0E7"/>
<stop offset="0.87" stop-color="#E5E9EE"/>
<stop offset="1" stop-color="#EBECF0"/>
</linearGradient>
<linearGradient id="paint20_linear_570_157" x1="286460" y1="3273.32" x2="284244" y2="3273.32" gradientUnits="userSpaceOnUse">
<stop stop-color="#77A6FF"/>
<stop offset="1" stop-color="#E5CDFF"/>
</linearGradient>
<linearGradient id="paint21_linear_570_157" x1="288296" y1="3273.32" x2="286081" y2="3273.32" gradientUnits="userSpaceOnUse">
<stop stop-color="#77A6FF"/>
<stop offset="1" stop-color="#E5CDFF"/>
</linearGradient>
<linearGradient id="paint22_linear_570_157" x1="397796" y1="46502.8" x2="397796" y2="39123.9" gradientUnits="userSpaceOnUse">
<stop stop-color="#77A6FF"/>
<stop offset="1" stop-color="#E5CDFF"/>
</linearGradient>
<linearGradient id="paint23_linear_570_157" x1="36910.7" y1="52756" x2="36910.7" y2="38888.3" gradientUnits="userSpaceOnUse">
<stop stop-color="#589DB5"/>
<stop offset="0.06" stop-color="#64A4BA"/>
<stop offset="0.28" stop-color="#94BDCD"/>
<stop offset="0.5" stop-color="#BAD2DC"/>
<stop offset="0.69" stop-color="#D5E0E7"/>
<stop offset="0.87" stop-color="#E5E9EE"/>
<stop offset="1" stop-color="#EBECF0"/>
</linearGradient>
<linearGradient id="paint24_linear_570_157" x1="458.952" y1="350.38" x2="458.3" y2="466.208" gradientUnits="userSpaceOnUse">
<stop stop-color="#232738"/>
<stop offset="1" stop-color="#161B2D"/>
</linearGradient>
<linearGradient id="paint25_linear_570_157" x1="475.82" y1="284.007" x2="476.175" y2="218.72" gradientUnits="userSpaceOnUse">
<stop stop-color="#585590"/>
<stop offset="1" stop-color="#3C3873"/>
</linearGradient>
</defs>
</svg>
